#!OML:ASF H:\Terrain\Patient Classification 1\Animal1\Tuesday\Animal1.ASF
:FULLY-SPECIFIED
:DEGREES
2059
root -1.01472 16.8414 12.9421 -347.253 15.9664 718.978
lowerback -4.50255 -0.992235 -2.11943
upperback -6.65449 -1.23797 0.856484
thorax -4.2917 -0.486632 2.06217
lowerneck -7.40858 -4.45594 -7.37596
upperneck 22.1328 -8.13682 13.9245
head 8.98153 -3.12149 5.2108
rclavicle 2.56991e-014 3.37934e-015
rhumerus -46.6388 11.7402 -88.4741
rradius 29.8479
rwrist -10.8164
rhand -19.5677 30.1973
rfingers 7.12502
rthumb 6.75717 0.325115
lclavicle 2.56991e-014 3.37934e-015
lhumerus -41.1205 -9.8691 96.7201
lradius 31.7409
lwrist -36.8519
lhand -4.47208 48.0419
lfingers 7.12502
lthumb 21.3006 76.8914
rfemur -24.6584 32.1712 18.5428
rtibia 24.8057
rfoot -30.7363 -35.8815
rtoes 40.3634
lfemur -30.5111 -4.98959 -18.3869
ltibia 34.2929
lfoot -14.0174 25.4359
ltoes -10.6553
2060
root -1.03203 16.8074 12.9442 -347.176 15.9963 719.056
lowerback -4.37791 -0.990184 -2.05232
upperback -6.68093 -1.23915 0.848733
thorax -4.39084 -0.488924 2.01922
lowerneck -7.52069 -4.54605 -7.68405
upperneck 22.2294 -8.27959 14.1655
head 9.07793 -3.18485 5.33732
rclavicle -2.42921e-014 1.0635e-014
rhumerus -46.679 12.0612 -88.4539
rradius 29.7365
rwrist -10.9722
rhand -19.2297 30.1376
rfingers 7.12502
rthumb 7.08344 0.276091
lclavicle -2.42921e-014 1.0635e-014
lhumerus -40.9745 -9.70436 96.8022
lradius 31.826
lwrist -36.1982
lhand -5.24235 47.2431
lfingers 7.12502
lthumb 20.5605 76.1742
rfemur -24.7238 30.7721 18.9715
rtibia 25.1323
rfoot -27.0782 -36.9377
rtoes 35.5511
lfemur -30.8074 -4.85449 -19.1363
ltibia 34.6876
lfoot -15.0539 24.2331
ltoes -9.56542
2061
root -1.04553 16.8206 12.9621 -347.219 15.9596 719.281
lowerback -4.38185 -0.915795 -2.07
upperback -6.55721 -1.14282 0.739993
thorax -4.26463 -0.445897 1.91559
lowerneck -7.68799 -4.60896 -7.74287
upperneck 22.2289 -8.37513 14.2647
head 9.12974 -3.21815 5.37
rclavicle 2.4786e-015 1.59028e-015
rhumerus -46.6624 12.1682 -88.4128
rradius 29.612
rwrist -10.9979
rhand -19.7292 30.4277
rfingers 7.12502
rthumb 6.60124 0.550572
lclavicle 2.4786e-015 1.59028e-015
lhumerus -40.8228 -9.61588 96.7865
lradius 31.965
lwrist -36.1043
lhand -6.14101 47.0134
lfingers 7.12502
lthumb 19.6968 76.0355
rfemur -24.9046 30.9473 18.7213
rtibia 25.7209
rfoot -29.7669 -35.3856
rtoes 38.7337
lfemur -30.5118 -4.80085 -20.0821
ltibia 34.7428
lfoot -16.1789 23.1767
ltoes -10.4631
2062
root -1.0599 16.7855 12.9718 -347.399 15.897 719.288
lowerback -4.3342 -0.824495 -1.91169
upperback -6.38409 -1.0258 0.684359
thorax -4.1176 -0.39971 1.76908
lowerneck -7.69131 -4.58588 -7.47908
upperneck 22.0489 -8.33825 14.1647
head 9.04822 -3.1925 5.28544
rclavicle 1.40298e-014 -8.15017e-015
rhumerus -46.509 11.8717 -88.1482
rradius 29.4513
rwrist -10.6238
rhand -20.4251 30.943
rfingers 7.12502
rthumb 5.9294 1.04594
lclavicle 1.40298e-014 -8.15017e-015
lhumerus -40.5745 -9.62095 96.7633
lradius 31.9946
lwrist -35.9307
lhand -5.5813 46.9064
lfingers 7.12502
lthumb 20.2348 75.8724
rfemur -24.7849 30.4016 19.1234
rtibia 26.1512
rfoot -28.3161 -35.8805
rtoes 36.2297
lfemur -30.3879 -5.04545 -20.7079
ltibia 34.9574
lfoot -16.997 22.2864
ltoes -14.2792
2063
root -1.07541 16.8041 12.979 -347.576 15.7519 719.256
lowerback -4.18272 -0.782212 -1.83375
upperback -6.28313 -0.972766 0.71876
thorax -4.09941 -0.377248 1.76261
lowerneck -7.65453 -4.52187 -7.26016
upperneck 21.9856 -8.22938 13.9648
head 8.98749 -3.14492 5.18589
rclavicle 3.97989e-014 1.06847e-014
rhumerus -46.459 11.867 -87.9411
rradius 29.395
rwrist -10.3775
rhand -20.22 31.15
rfingers 7.12502
rthumb 6.1274 1.25865
lclavicle 3.97989e-014 1.06847e-014
lhumerus -40.4457 -9.492 96.7692
lradius 32.0426
lwrist -35.3486
lhand -2.20296 48.4381
lfingers 7.12502
lthumb 23.4787 77.0254
rfemur -24.8248 30.5726 19.2337
rtibia 26.5529
rfoot -29.0607 -35.4326
rtoes 37.5529
lfemur -30.2171 -5.29574 -21.2592
ltibia 35.1272
lfoot -17.8267 21.2051
ltoes -17.7826
